<svg width="63" height="63" viewBox="0 0 63 63" fill="none" xmlns="http://www.w3.org/2000/svg">
<path d="M47.2538 2.51278C47.2538 0.53512 45.0395 0.535096 44.0554 0.782304C45.4332 -0.305411 47.0488 -0.0416975 47.6229 0.287914L60.9279 6.8118C62.1957 7.43343 62.9999 8.72686 62.9999 10.1443V53.062C62.9999 54.4984 62.1743 55.8056 60.8808 56.4172L48.361 62.3371C47.4999 62.7078 45.63 63.6225 44.0554 62.337C46.0237 62.7078 47.0898 61.307 47.2538 60.3594V2.51278Z" fill="url(#paint0_linear_6028_27)"/>
<path d="M44.2152 0.746507C45.2597 0.540101 47.254 0.635821 47.254 2.51264V17.2854L6.91557 47.8017C6.21049 48.3351 5.21821 48.2466 4.61765 47.5967L0.460198 43.0981C-0.191106 42.3933 -0.145535 41.2902 0.561653 40.6421L44.0556 0.782162L44.2152 0.746507Z" fill="url(#paint1_linear_6028_27)"/>
<path d="M47.254 45.8338L6.91557 15.3175C6.21049 14.7841 5.21821 14.8726 4.61765 15.5225L0.460198 20.0211C-0.191106 20.7259 -0.145535 21.829 0.561653 22.4771L44.0556 62.337C46.0238 62.7079 47.09 61.307 47.254 60.3594V45.8338Z" fill="url(#paint2_linear_6028_27)"/>
<defs>
<linearGradient id="paint0_linear_6028_27" x1="53.5276" y1="0" x2="53.5276" y2="63" gradientUnits="userSpaceOnUse">
<stop stop-color="#32B5F1"/>
<stop offset="1" stop-color="#2B9FED"/>
</linearGradient>
<linearGradient id="paint1_linear_6028_27" x1="47.254" y1="7.95118" x2="2.29883" y2="45.6862" gradientUnits="userSpaceOnUse">
<stop stop-color="#0F6FB3"/>
<stop offset="0.270551" stop-color="#1279B7"/>
<stop offset="0.421376" stop-color="#1176B5"/>
<stop offset="0.618197" stop-color="#0E69AC"/>
<stop offset="0.855344" stop-color="#0F70AF"/>
<stop offset="1" stop-color="#0F6DAD"/>
</linearGradient>
<linearGradient id="paint2_linear_6028_27" x1="2.59924" y1="17.9633" x2="47.428" y2="55.0814" gradientUnits="userSpaceOnUse">
<stop stop-color="#1791D2"/>
<stop offset="1" stop-color="#1173C5"/>
</linearGradient>
</defs>
</svg>
