<svg width="49" height="55" viewBox="0 0 49 55" fill="none" xmlns="http://www.w3.org/2000/svg">
<path d="M24.4807 54.5C23.7575 54.5 23.0393 54.3103 22.4054 53.9453L15.7995 50.0343C14.8128 49.4825 15.2942 49.2874 15.6197 49.175C16.9352 48.7143 17.2022 48.6103 18.6064 47.8129C18.754 47.7287 18.9471 47.7584 19.0982 47.8475L24.1731 50.859C24.3564 50.9581 24.6164 50.9581 24.7863 50.859L44.5738 39.4372C44.757 39.3332 44.8759 39.1203 44.8759 38.9023V16.0687C44.8759 15.8409 44.757 15.6378 44.5698 15.5239L24.7903 4.11202C24.607 4.00305 24.3643 4.00305 24.181 4.11202L4.40544 15.5239C4.21375 15.6328 4.09191 15.8458 4.09191 16.0638V38.8974C4.09191 39.1153 4.21078 39.3233 4.399 39.4273L9.81765 42.5577C12.7598 44.0287 14.5577 42.2952 14.5577 40.5517V18.0153C14.5577 17.6933 14.8103 17.4457 15.1323 17.4457H17.6385C17.9506 17.4457 18.2081 17.6933 18.2081 18.0153V40.5616C18.2081 44.4844 16.0684 46.7381 12.3487 46.7381C11.2045 46.7381 10.303 46.7381 7.78689 45.4998L2.59608 42.5081C1.31324 41.7652 0.520752 40.3783 0.520752 38.8974V16.0638C0.520752 14.5778 1.31324 13.191 2.59608 12.4579L22.4034 1.03122C23.6565 0.322928 25.3207 0.322928 26.5639 1.03122L46.3465 12.4629C47.6244 13.2009 48.4218 14.5828 48.4218 16.0687V38.9023C48.4218 40.3833 47.6244 41.7652 46.3465 42.5081L26.5639 53.9349C25.93 54.3014 25.2118 54.4896 24.4787 54.4896L24.4807 54.5ZM30.5928 38.7661C21.9348 38.7661 20.1195 34.7918 20.1195 31.4584C20.1195 31.1414 20.3751 30.8888 20.6926 30.8888H23.2484C23.5307 30.8888 23.7684 31.0943 23.813 31.3732C24.1994 33.9775 25.3485 35.291 30.5838 35.291C34.7543 35.291 36.5275 34.349 36.5275 32.1374C36.5275 30.8645 36.0223 29.9185 29.5437 29.2845C24.1251 28.7495 20.7768 27.5558 20.7768 23.2219C20.7768 19.2297 24.1449 16.8523 29.7864 16.8523C36.1214 16.8523 39.2616 19.0514 39.6579 23.7767C39.6727 23.9401 39.6133 24.0986 39.5043 24.2175C39.3953 24.3314 39.2418 24.4007 39.0833 24.4007H36.5127C36.2452 24.4007 36.0124 24.2125 35.9579 23.955C35.3388 21.2159 33.843 20.3392 29.7765 20.3392C25.2246 20.3392 24.6947 21.9242 24.6947 23.113C24.6947 24.5543 25.3187 24.9753 31.4605 25.7876C37.5429 26.595 40.4305 27.7342 40.4305 32.0086C40.4305 36.3178 36.8346 38.7894 30.564 38.7894L30.5928 38.7661Z" fill="#689F63"/>
</svg>
